<svg width="16" height="16" viewBox="0 0 16 16" fill="none" xmlns="http://www.w3.org/2000/svg">
<path d="M5 11.5078H7.19608V16H5V11.5078Z" fill="#FF0000"/>
<path d="M7.19608 11.5078V16H5V11.5078H7.19608ZM5.13726 15.8717H7.05882V11.6361H5.13726V15.8717Z" fill="#FF0000"/>
<path d="M9.39216 7.78567H12V16H9.39216V7.78567Z" fill="#FF0000"/>
<path d="M12 7.78567V16H9.39216V7.78567H12ZM9.52941 15.8717H11.8627V7.91402H9.52941V15.8717Z" fill="#FF0000"/>
<path d="M7.19608 9.83926H9.39216V16H7.19608V9.83926Z" fill="#FF0000"/>
<path d="M9.39216 9.83926V16H7.19608V9.83926H9.39216ZM7.33333 15.8717H9.2549V9.9676H7.33333V15.8717Z" fill="#FF0000"/>
<path d="M5 7.78567H5.41177V13.9464H5V7.78567Z" fill="#FF0000"/>
<path d="M11.5882 7.40063L11.5882 7.78567L5 7.78567V7.40063L11.5882 7.40063Z" fill="#FF0000"/>
<path d="M11.5882 9.45421L11.5882 9.83926H5.00001L5 9.45421H11.5882Z" fill="#FF0000"/>
<path d="M11.5882 5.34705V5.73209H7.19608V5.34705H11.5882Z" fill="#FF0000"/>
<path d="M7.19608 5.73209H7.60784V13.9464H7.19608V5.73209Z" fill="#FF0000"/>
<path d="M12 3.29346L12 3.67851L9.39216 3.67851L9.39216 3.29346H12Z" fill="#FF0000"/>
<path d="M11.5882 3.67851L12 3.67851L12 11.8928H11.5882V3.67851Z" fill="#FF0000"/>
<path d="M9.39216 3.67851L9.80392 3.67851V11.8928H9.39216L9.39216 3.67851Z" fill="#FF0000"/>
<path d="M10.0784 1.11153L7.5049 2.22307V0L10.0784 1.11153Z" fill="#0095FF"/>
<path d="M7.5049 2.22307V0L10.0784 1.11153L7.5049 2.22307ZM7.77941 0.401353V1.82171L9.42392 1.11153L7.77941 0.401353Z" fill="#0095FF"/>
</svg>
