<svg width="912" height="201" viewBox="0 0 912 201" fill="none" xmlns="http://www.w3.org/2000/svg">
<path d="M898.804 118.624C897.012 118.624 895.276 118.344 893.596 117.784C891.932 117.224 890.475 116.424 889.227 115.384C887.979 114.344 887.1 113.104 886.588 111.664L889.732 110.488C890.084 111.48 890.723 112.336 891.651 113.056C892.595 113.76 893.692 114.304 894.94 114.688C896.204 115.072 897.492 115.264 898.804 115.264C900.34 115.264 901.771 115.008 903.099 114.496C904.427 113.984 905.499 113.272 906.315 112.36C907.131 111.432 907.539 110.344 907.539 109.096C907.539 107.832 907.116 106.792 906.268 105.976C905.42 105.16 904.323 104.52 902.979 104.056C901.651 103.576 900.26 103.208 898.804 102.952C896.516 102.552 894.459 102.008 892.635 101.32C890.827 100.632 889.395 99.664 888.339 98.416C887.283 97.152 886.755 95.488 886.755 93.424C886.755 91.488 887.315 89.808 888.435 88.384C889.555 86.96 891.028 85.856 892.852 85.072C894.692 84.288 896.676 83.896 898.804 83.896C900.548 83.896 902.252 84.168 903.916 84.712C905.58 85.256 907.043 86.048 908.307 87.088C909.587 88.128 910.508 89.4 911.068 90.904L907.875 92.056C907.523 91.048 906.876 90.192 905.932 89.488C905.004 88.768 903.915 88.224 902.667 87.856C901.419 87.472 900.132 87.28 898.804 87.28C897.284 87.264 895.859 87.52 894.531 88.048C893.219 88.56 892.155 89.28 891.339 90.208C890.523 91.12 890.115 92.192 890.115 93.424C890.115 94.864 890.492 95.976 891.244 96.76C892.012 97.528 893.052 98.104 894.364 98.488C895.676 98.872 897.156 99.216 898.804 99.52C900.948 99.888 902.939 100.464 904.779 101.248C906.619 102.016 908.099 103.048 909.219 104.344C910.339 105.624 910.899 107.208 910.899 109.096C910.899 111.016 910.339 112.696 909.219 114.136C908.099 115.56 906.619 116.664 904.779 117.448C902.955 118.232 900.964 118.624 898.804 118.624Z" fill="white"/>
<path d="M841.402 118.624C839.13 118.624 836.994 118.176 834.994 117.28C832.994 116.368 831.234 115.112 829.714 113.512C828.194 111.912 827.002 110.064 826.138 107.968C825.274 105.856 824.842 103.6 824.842 101.2C824.842 98.8 825.274 96.552 826.138 94.456C827.002 92.344 828.194 90.488 829.714 88.888C831.234 87.288 832.994 86.04 834.994 85.144C836.994 84.232 839.13 83.776 841.402 83.776C843.69 83.776 845.834 84.232 847.834 85.144C849.834 86.04 851.594 87.288 853.114 88.888C854.634 90.488 855.818 92.344 856.666 94.456C857.53 96.552 857.962 98.8 857.962 101.2C857.962 103.6 857.53 105.856 856.666 107.968C855.818 110.064 854.634 111.912 853.114 113.512C851.594 115.112 849.834 116.368 847.834 117.28C845.834 118.176 843.69 118.624 841.402 118.624ZM841.402 115.264C843.242 115.264 844.954 114.896 846.538 114.16C848.138 113.408 849.538 112.384 850.738 111.088C851.954 109.792 852.898 108.296 853.57 106.6C854.258 104.904 854.602 103.104 854.602 101.2C854.602 99.28 854.258 97.472 853.57 95.776C852.882 94.064 851.93 92.568 850.714 91.288C849.514 89.992 848.114 88.976 846.514 88.24C844.93 87.504 843.226 87.136 841.402 87.136C839.562 87.136 837.842 87.512 836.242 88.264C834.658 89 833.258 90.016 832.042 91.312C830.842 92.608 829.898 94.104 829.21 95.8C828.538 97.496 828.202 99.296 828.202 101.2C828.202 103.136 828.546 104.952 829.234 106.648C829.922 108.344 830.866 109.84 832.066 111.136C833.282 112.432 834.682 113.448 836.266 114.184C837.866 114.904 839.578 115.264 841.402 115.264Z" fill="white"/>
<path d="M791.975 118V84.4H795.335V118H791.975Z" fill="white"/>
<path d="M734.911 118V84.4H746.023C748.343 84.4 750.519 84.84 752.551 85.72C754.583 86.584 756.367 87.792 757.903 89.344C759.439 90.88 760.639 92.664 761.503 94.696C762.383 96.712 762.823 98.88 762.823 101.2C762.823 103.52 762.383 105.696 761.503 107.728C760.639 109.744 759.439 111.528 757.903 113.08C756.367 114.616 754.583 115.824 752.551 116.704C750.519 117.568 748.343 118 746.023 118H734.911ZM738.271 114.64H746.023C747.879 114.64 749.615 114.296 751.231 113.608C752.863 112.904 754.295 111.936 755.527 110.704C756.759 109.472 757.719 108.048 758.407 106.432C759.111 104.8 759.463 103.056 759.463 101.2C759.463 99.344 759.111 97.608 758.407 95.992C757.719 94.36 756.751 92.928 755.503 91.696C754.271 90.464 752.847 89.504 751.231 88.816C749.615 88.112 747.879 87.76 746.023 87.76H738.271V114.64Z" fill="white"/>
<path d="M692.349 118.624C689.661 118.624 687.342 117.968 685.39 116.656C683.438 115.344 681.934 113.584 680.878 111.376C679.838 109.152 679.318 106.688 679.318 103.984V84.4H682.677V103.984C682.677 106.032 683.054 107.912 683.806 109.624C684.558 111.336 685.654 112.704 687.094 113.728C688.534 114.752 690.285 115.264 692.349 115.264C694.461 115.264 696.23 114.752 697.654 113.728C699.094 112.688 700.181 111.312 700.917 109.6C701.653 107.888 702.021 106.016 702.021 103.984V84.4H705.381V103.984C705.381 106.016 705.077 107.92 704.469 109.696C703.877 111.456 703.014 113.008 701.878 114.352C700.758 115.696 699.389 116.744 697.773 117.496C696.173 118.248 694.365 118.624 692.349 118.624Z" fill="white"/>
<path d="M650.499 84.4V87.76H638.979V118H635.619V87.76H624.123V84.4H650.499Z" fill="white"/>
<path d="M584.788 118.624C582.996 118.624 581.26 118.344 579.58 117.784C577.916 117.224 576.46 116.424 575.212 115.384C573.964 114.344 573.084 113.104 572.572 111.664L575.716 110.488C576.068 111.48 576.708 112.336 577.636 113.056C578.58 113.76 579.676 114.304 580.924 114.688C582.188 115.072 583.476 115.264 584.788 115.264C586.324 115.264 587.756 115.008 589.084 114.496C590.412 113.984 591.484 113.272 592.3 112.36C593.116 111.432 593.524 110.344 593.524 109.096C593.524 107.832 593.1 106.792 592.252 105.976C591.404 105.16 590.308 104.52 588.964 104.056C587.636 103.576 586.244 103.208 584.788 102.952C582.5 102.552 580.444 102.008 578.62 101.32C576.812 100.632 575.38 99.664 574.324 98.416C573.268 97.152 572.74 95.488 572.74 93.424C572.74 91.488 573.3 89.808 574.42 88.384C575.54 86.96 577.012 85.856 578.836 85.072C580.676 84.288 582.66 83.896 584.788 83.896C586.532 83.896 588.236 84.168 589.9 84.712C591.564 85.256 593.028 86.048 594.292 87.088C595.572 88.128 596.492 89.4 597.052 90.904L593.86 92.056C593.508 91.048 592.86 90.192 591.916 89.488C590.988 88.768 589.9 88.224 588.652 87.856C587.404 87.472 586.116 87.28 584.788 87.28C583.268 87.264 581.844 87.52 580.516 88.048C579.204 88.56 578.14 89.28 577.324 90.208C576.508 91.12 576.1 92.192 576.1 93.424C576.1 94.864 576.476 95.976 577.228 96.76C577.996 97.528 579.036 98.104 580.348 98.488C581.66 98.872 583.14 99.216 584.788 99.52C586.932 99.888 588.924 100.464 590.764 101.248C592.604 102.016 594.084 103.048 595.204 104.344C596.324 105.624 596.884 107.208 596.884 109.096C596.884 111.016 596.324 112.696 595.204 114.136C594.084 115.56 592.604 116.664 590.764 117.448C588.94 118.232 586.948 118.624 584.788 118.624Z" fill="white"/>
<path d="M471.052 118L477.556 84.4H480.004L489.412 109.12L498.772 84.4H501.22L507.748 118H504.316L499.348 92.296L490.468 115.792H488.308L479.428 92.296L474.46 118H471.052Z" fill="white"/>
<path d="M426.417 118.624C424.145 118.624 422.009 118.176 420.009 117.28C418.009 116.368 416.249 115.112 414.729 113.512C413.209 111.912 412.018 110.064 411.154 107.968C410.29 105.856 409.857 103.6 409.857 101.2C409.857 98.8 410.29 96.552 411.154 94.456C412.018 92.344 413.209 90.488 414.729 88.888C416.249 87.288 418.009 86.04 420.009 85.144C422.009 84.232 424.145 83.776 426.417 83.776C428.705 83.776 430.849 84.232 432.849 85.144C434.849 86.04 436.609 87.288 438.129 88.888C439.649 90.488 440.833 92.344 441.681 94.456C442.545 96.552 442.977 98.8 442.977 101.2C442.977 103.6 442.545 105.856 441.681 107.968C440.833 110.064 439.649 111.912 438.129 113.512C436.609 115.112 434.849 116.368 432.849 117.28C430.849 118.176 428.705 118.624 426.417 118.624ZM426.417 115.264C428.257 115.264 429.969 114.896 431.553 114.16C433.153 113.408 434.553 112.384 435.753 111.088C436.969 109.792 437.913 108.296 438.585 106.6C439.273 104.904 439.617 103.104 439.617 101.2C439.617 99.28 439.273 97.472 438.585 95.776C437.897 94.064 436.945 92.568 435.729 91.288C434.529 89.992 433.129 88.976 431.529 88.24C429.945 87.504 428.241 87.136 426.417 87.136C424.577 87.136 422.858 87.512 421.258 88.264C419.674 89 418.273 90.016 417.057 91.312C415.857 92.608 414.913 94.104 414.225 95.8C413.553 97.496 413.217 99.296 413.217 101.2C413.217 103.136 413.561 104.952 414.249 106.648C414.937 108.344 415.881 109.84 417.081 111.136C418.297 112.432 419.697 113.448 421.281 114.184C422.881 114.904 424.593 115.264 426.417 115.264Z" fill="white"/>
<path d="M356.302 118V84.4H359.95L377.686 111.928V84.4H381.046V118H377.422L359.662 90.472V118H356.302Z" fill="white"/>
<path d="M306.239 118V84.4H326.687V87.76H309.599V98.32H323.735V101.68H309.599V114.64H326.687V118H306.239Z" fill="white"/>
<path d="M273.099 84.4H276.459V118H273.099V101.68H255.459V118H252.099V84.4H255.459V98.32H273.099V84.4Z" fill="white"/>
<path d="M202.88 118V84.4H213.632C215.424 84.4 217.04 84.84 218.48 85.72C219.92 86.584 221.064 87.76 221.912 89.248C222.776 90.72 223.208 92.376 223.208 94.216C223.208 96.072 222.768 97.744 221.888 99.232C221.024 100.72 219.864 101.896 218.408 102.76C216.968 103.624 215.376 104.056 213.632 104.056H206.24V118H202.88ZM206.24 100.696H213.368C214.552 100.696 215.632 100.408 216.608 99.832C217.6 99.24 218.384 98.448 218.96 97.456C219.552 96.448 219.848 95.312 219.848 94.048C219.848 92.784 219.552 91.656 218.96 90.664C218.384 89.656 217.6 88.864 216.608 88.288C215.632 87.696 214.552 87.4 213.368 87.4H206.24V100.696Z" fill="white"/>
<path d="M21 99.5929L200.25 0L119.5 99.593L200.25 199.186L21 99.5929Z" fill="#0095FF"/>
<path d="M0 101L179.25 1.40704L98.5 101L179.25 200.593L0 101Z" fill="#F00707"/>
<path d="M30 97H49V83L30 92.8824V97Z" fill="black"/>
<path d="M30 104H49V118L30 108.118V104Z" fill="black"/>
<path d="M139 100.5L109.75 122.584V78.4164L139 100.5Z" fill="#F00707"/>
<path d="M125 118.5L95.75 140.584V96.4164L125 118.5Z" fill="#F00707"/>
<path d="M125 81.5L95.75 103.584V59.4164L125 81.5Z" fill="#F00707"/>
<path d="M100 89H115V110H100V89Z" fill="#F00707"/>
</svg>
