<svg width="201" height="201" viewBox="0 0 201 201" fill="none" xmlns="http://www.w3.org/2000/svg">
<path d="M21 99.5929L200.25 0L119.5 99.593L200.25 199.186L21 99.5929Z" fill="#0095FF"/>
<path d="M0 101L179.25 1.40704L98.5 101L179.25 200.593L0 101Z" fill="#F00707"/>
<path d="M30 97H49V83L30 92.8824V97Z" fill="black"/>
<path d="M30 104H49V118L30 108.118V104Z" fill="black"/>
<path d="M139 100.5L109.75 122.584V78.4164L139 100.5Z" fill="#F00707"/>
<path d="M125 118.5L95.75 140.584V96.4164L125 118.5Z" fill="#F00707"/>
<path d="M125 81.5L95.75 103.584V59.4164L125 81.5Z" fill="#F00707"/>
<path d="M100 89H115V110H100V89Z" fill="#F00707"/>
</svg>
