<svg width="488" height="126" viewBox="0 0 488 126" fill="none" xmlns="http://www.w3.org/2000/svg">
<path d="M392.855 79.4923C390.381 79.4923 388.002 79.1083 385.719 78.3403C383.458 77.5509 381.474 76.4309 379.767 74.9803C378.061 73.5083 376.834 71.7483 376.087 69.7003L383.415 67.0123C383.714 67.8656 384.322 68.6443 385.239 69.3483C386.157 70.0523 387.277 70.6176 388.599 71.0443C389.922 71.4709 391.341 71.6842 392.855 71.6842C394.413 71.6842 395.863 71.4496 397.207 70.9803C398.573 70.4896 399.671 69.8176 400.503 68.9643C401.335 68.0896 401.751 67.0763 401.751 65.9243C401.751 64.7509 401.314 63.7909 400.439 63.0443C399.565 62.2763 398.445 61.6683 397.079 61.2203C395.714 60.7723 394.306 60.4309 392.855 60.1963C389.677 59.7056 386.829 58.9483 384.311 57.9243C381.794 56.9003 379.799 55.4816 378.327 53.6683C376.877 51.8549 376.151 49.5083 376.151 46.6283C376.151 43.9189 376.93 41.5509 378.487 39.5243C380.045 37.4976 382.093 35.9189 384.631 34.7883C387.17 33.6576 389.911 33.0923 392.855 33.0923C395.309 33.0923 397.677 33.4763 399.959 34.2443C402.242 35.0123 404.237 36.1323 405.943 37.6043C407.671 39.0763 408.909 40.8469 409.655 42.9163L402.295 45.5723C401.997 44.7189 401.389 43.9403 400.471 43.2363C399.554 42.5323 398.434 41.9776 397.111 41.5723C395.789 41.1456 394.37 40.9323 392.855 40.9323C391.341 40.9109 389.901 41.1563 388.535 41.6683C387.191 42.1589 386.093 42.8309 385.239 43.6843C384.386 44.5376 383.959 45.5189 383.959 46.6283C383.959 48.0576 384.354 49.1349 385.143 49.8603C385.954 50.5856 387.031 51.1189 388.375 51.4603C389.719 51.7803 391.213 52.0789 392.855 52.3563C395.842 52.8256 398.605 53.6149 401.143 54.7243C403.682 55.8336 405.719 57.3163 407.255 59.1723C408.791 61.0069 409.559 63.2576 409.559 65.9243C409.559 68.6336 408.791 71.0123 407.255 73.0603C405.719 75.0869 403.682 76.6656 401.143 77.7963C398.605 78.9269 395.842 79.4923 392.855 79.4923Z" fill="white"/>
<path d="M351.573 33.8603V41.6683H337.876V78.6603H330.069V41.6683H316.372V33.8603H351.573Z" fill="white"/>
<path d="M261.077 78.6603V33.8603H278.261C280.693 33.8603 282.891 34.4683 284.853 35.6843C286.816 36.9003 288.373 38.5323 289.525 40.5803C290.677 42.6069 291.253 44.8576 291.253 47.3323C291.253 49.3589 290.88 51.2256 290.133 52.9323C289.408 54.6176 288.384 56.0789 287.061 57.3163C285.76 58.5536 284.256 59.4923 282.549 60.1323L293.27 78.6603H284.277L273.909 60.8363H268.885V78.6603H261.077ZM268.885 53.0283H277.365C278.475 53.0283 279.488 52.7509 280.405 52.1963C281.323 51.6416 282.059 50.8949 282.613 49.9563C283.168 49.0176 283.445 47.9723 283.445 46.8203C283.445 45.6469 283.168 44.5909 282.613 43.6523C282.059 42.7136 281.323 41.9669 280.405 41.4123C279.488 40.8576 278.475 40.5803 277.365 40.5803H268.885V53.0283Z" fill="white"/>
<path d="M211.229 33.8603H220.221L236.508 78.6603H228.221L225.34 70.7243H206.141L203.261 78.6603H194.973L211.229 33.8603ZM208.989 62.9163H222.461L215.709 44.4523L208.989 62.9163Z" fill="white"/>
<path d="M170.634 58.9803V78.6603H167.178V59.5243C167.178 57.6256 166.719 55.8976 165.802 54.3403C164.884 52.7829 163.647 51.5456 162.09 50.6283C160.532 49.7109 158.804 49.2523 156.906 49.2523C155.028 49.2523 153.311 49.7109 151.754 50.6283C150.196 51.5456 148.948 52.7829 148.01 54.3403C147.092 55.8976 146.634 57.6256 146.634 59.5243V78.6603H143.178V46.6603H146.634V51.5563C147.786 49.7856 149.311 48.3776 151.21 47.3323C153.108 46.2869 155.178 45.7643 157.418 45.7643C159.871 45.7643 162.09 46.3616 164.074 47.5563C166.079 48.7296 167.668 50.3189 168.842 52.3243C170.036 54.3296 170.634 56.5483 170.634 58.9803Z" fill="white"/>
<path d="M112.915 46.6603H116.371V78.6603H112.915V46.6603ZM114.675 40.6123C114.078 40.6123 113.566 40.4203 113.139 40.0363C112.734 39.6309 112.531 39.1296 112.531 38.5323C112.531 37.9349 112.734 37.4443 113.139 37.0603C113.566 36.6549 114.078 36.4523 114.675 36.4523C115.251 36.4523 115.742 36.6549 116.147 37.0603C116.574 37.4443 116.787 37.9349 116.787 38.5323C116.787 39.1296 116.584 39.6309 116.179 40.0363C115.774 40.4203 115.272 40.6123 114.675 40.6123Z" fill="white"/>
<path d="M72.42 79.4923C69.476 79.4923 66.788 78.7349 64.356 77.2203C61.9453 75.7056 60.0147 73.6789 58.564 71.1403C57.1347 68.5803 56.42 65.7536 56.42 62.6603C56.42 60.3136 56.836 58.1269 57.668 56.1003C58.5 54.0523 59.6413 52.2603 61.092 50.7243C62.564 49.1669 64.2707 47.9509 66.212 47.0763C68.1533 46.2016 70.2227 45.7643 72.42 45.7643C74.7453 45.7643 76.8893 46.2229 78.852 47.1403C80.836 48.0363 82.5427 49.3056 83.972 50.9483C85.4013 52.5909 86.5 54.5323 87.268 56.7723C88.036 58.9909 88.388 61.4229 88.324 64.0683H60.036C60.2707 66.3509 60.9533 68.3989 62.084 70.2123C63.236 72.0043 64.708 73.4229 66.5 74.4683C68.292 75.4923 70.2653 76.0149 72.42 76.0363C74.788 76.0363 76.9213 75.4176 78.82 74.1803C80.7187 72.9216 82.244 71.2043 83.396 69.0283L86.884 69.8283C85.604 72.6656 83.6733 74.9909 81.092 76.8043C78.5107 78.5963 75.62 79.4923 72.42 79.4923ZM59.94 61.1243H84.836C84.708 58.9269 84.068 56.9109 82.916 55.0763C81.7853 53.2203 80.3027 51.7376 78.468 50.6283C76.6333 49.5189 74.6173 48.9643 72.42 48.9643C70.2227 48.9643 68.2173 49.5083 66.404 50.5963C64.5907 51.6843 63.108 53.1563 61.956 55.0123C60.8253 56.8469 60.1533 58.8843 59.94 61.1243Z" fill="white"/>
<path d="M16.16 79.4923C13.792 79.4923 11.4987 79.1296 9.28 78.4043C7.06133 77.6576 5.12 76.6123 3.456 75.2683C1.81333 73.9029 0.661334 72.2709 0 70.3723L3.232 69.1562C3.744 70.6069 4.672 71.8549 6.016 72.9003C7.38133 73.9243 8.94933 74.7029 10.72 75.2363C12.512 75.7696 14.3253 76.0363 16.16 76.0363C18.336 76.0363 20.3733 75.6629 22.272 74.9163C24.1707 74.1696 25.7067 73.1349 26.88 71.8123C28.0533 70.4683 28.64 68.8789 28.64 67.0443C28.64 65.2096 28.032 63.7056 26.816 62.5323C25.6 61.3376 24.032 60.3989 22.112 59.7163C20.2133 59.0123 18.2293 58.4683 16.16 58.0843C13.1307 57.5509 10.4213 56.8469 8.032 55.9723C5.64267 55.0763 3.744 53.8176 2.336 52.1963C0.949332 50.5749 0.255999 48.3989 0.255999 45.6683C0.255999 43.1296 0.991999 40.9323 2.464 39.0763C3.95733 37.2203 5.90933 35.7803 8.32 34.7563C10.7307 33.7323 13.344 33.2203 16.16 33.2203C18.4427 33.2203 20.6827 33.5829 22.88 34.3083C25.0773 35.0123 27.0187 36.0469 28.704 37.4123C30.3893 38.7776 31.6053 40.4416 32.352 42.4043L29.056 43.5883C28.544 42.1163 27.616 40.8683 26.272 39.8443C24.928 38.8203 23.36 38.0416 21.568 37.5083C19.7973 36.9749 17.9947 36.7083 16.16 36.7083C13.9627 36.6869 11.9147 37.0603 10.016 37.8283C8.13867 38.5749 6.61333 39.6203 5.44 40.9643C4.288 42.3083 3.712 43.8763 3.712 45.6683C3.712 47.7376 4.256 49.3376 5.344 50.4683C6.432 51.5989 7.91467 52.4523 9.792 53.0283C11.6693 53.5829 13.792 54.0843 16.16 54.5323C18.976 55.0229 21.5893 55.7803 24 56.8043C26.432 57.8069 28.384 59.1509 29.856 60.8363C31.3493 62.5003 32.096 64.5696 32.096 67.0443C32.096 69.5616 31.3493 71.7589 29.856 73.6363C28.384 75.4923 26.4427 76.9323 24.032 77.9563C21.6213 78.9803 18.9973 79.4923 16.16 79.4923Z" fill="white"/>
<path d="M412.126 124.66H408.654L401.582 114.948L399.902 116.964V124.66H397.214V102.26H399.902V112.788L408.718 102.26H412.222L403.342 112.836L412.126 124.66Z" fill="white"/>
<path d="M365.914 124.66V102.26H373.786C374.98 102.26 376.058 102.553 377.018 103.14C377.988 103.727 378.756 104.521 379.322 105.524C379.898 106.516 380.186 107.625 380.186 108.852C380.186 109.929 379.972 110.911 379.546 111.796C379.119 112.681 378.532 113.423 377.786 114.02C377.05 114.607 376.212 115.012 375.274 115.236L380.714 124.66H377.61L372.266 115.46H368.602V124.66H365.914ZM368.602 112.772H373.514C374.239 112.772 374.906 112.596 375.514 112.244C376.122 111.881 376.602 111.396 376.954 110.788C377.316 110.169 377.498 109.476 377.498 108.708C377.498 107.929 377.316 107.236 376.954 106.628C376.602 106.009 376.122 105.524 375.514 105.172C374.906 104.809 374.239 104.628 373.514 104.628H368.602V112.772Z" fill="white"/>
<path d="M338.92 125.076C337.405 125.076 335.981 124.777 334.648 124.18C333.315 123.572 332.141 122.735 331.128 121.668C330.115 120.601 329.32 119.369 328.744 117.972C328.168 116.564 327.88 115.06 327.88 113.46C327.88 111.86 328.168 110.361 328.744 108.964C329.32 107.556 330.115 106.319 331.128 105.252C332.141 104.185 333.315 103.353 334.648 102.756C335.981 102.148 337.405 101.844 338.92 101.844C340.445 101.844 341.875 102.148 343.208 102.756C344.541 103.353 345.715 104.185 346.728 105.252C347.741 106.319 348.531 107.556 349.096 108.964C349.672 110.361 349.96 111.86 349.96 113.46C349.96 115.06 349.672 116.564 349.096 117.972C348.531 119.369 347.741 120.601 346.728 121.668C345.715 122.735 344.541 123.572 343.208 124.18C341.875 124.777 340.445 125.076 338.92 125.076ZM338.92 122.388C340.083 122.388 341.165 122.153 342.168 121.684C343.181 121.215 344.067 120.569 344.824 119.748C345.592 118.916 346.189 117.967 346.616 116.9C347.053 115.823 347.272 114.676 347.272 113.46C347.272 112.244 347.053 111.097 346.616 110.02C346.179 108.932 345.576 107.983 344.808 107.172C344.051 106.351 343.165 105.705 342.152 105.236C341.149 104.767 340.072 104.532 338.92 104.532C337.757 104.532 336.669 104.767 335.656 105.236C334.653 105.705 333.768 106.356 333 107.188C332.243 108.009 331.645 108.959 331.208 110.036C330.781 111.103 330.568 112.244 330.568 113.46C330.568 114.687 330.787 115.839 331.224 116.916C331.661 117.993 332.259 118.943 333.016 119.764C333.784 120.585 334.669 121.231 335.672 121.7C336.685 122.159 337.768 122.388 338.92 122.388Z" fill="white"/>
<path d="M293.236 124.66L287.508 102.26H290.276L294.788 119.94L299.284 102.26H301.701L306.212 119.94L310.708 102.26H313.477L307.78 124.66H304.645L300.5 108.436L296.357 124.66H293.236Z" fill="white"/>
<path d="M258.232 124.66V102.26H271.977V104.948H260.921V111.316H269.977V114.004H260.921V121.972H271.977V124.66H258.232Z" fill="white"/>
<path d="M217.245 124.66L221.581 102.26H223.645L229.693 118.164L235.725 102.26H237.789L242.141 124.66H239.405L236.253 108.404L230.573 123.444H228.797L223.117 108.404L219.981 124.66H217.245Z" fill="white"/>
<path d="M191.137 102.26H194.385L202.529 124.66H199.681L198.017 120.084H187.505L185.857 124.66H182.993L191.137 102.26ZM188.497 117.396H197.025L192.753 105.7L188.497 117.396Z" fill="white"/>
<path d="M153.083 124.66V102.26H160.954C162.149 102.26 163.226 102.553 164.186 103.14C165.157 103.727 165.925 104.521 166.49 105.524C167.066 106.516 167.354 107.625 167.354 108.852C167.354 109.929 167.141 110.911 166.715 111.796C166.288 112.681 165.701 113.423 164.954 114.02C164.218 114.607 163.381 115.012 162.443 115.236L167.883 124.66H164.779L159.434 115.46H155.771V124.66H153.083ZM155.771 112.772H160.682C161.408 112.772 162.074 112.596 162.682 112.244C163.29 111.881 163.77 111.396 164.122 110.788C164.485 110.169 164.667 109.476 164.667 108.708C164.667 107.929 164.485 107.236 164.122 106.628C163.77 106.009 163.29 105.524 162.682 105.172C162.074 104.809 161.408 104.628 160.682 104.628H155.771V112.772Z" fill="white"/>
<path d="M124.72 124.66V102.26H137.856V104.948H127.408V111.316H136.32V114.004H127.408V124.66H124.72Z" fill="white"/>
<path d="M487.825 124.66H436.825V57.6603H452.825V41.6603H468.825V25.6603H487.825V124.66ZM439.825 89.6603H452.825V76.6603H439.825V89.6603ZM439.825 73.6603H452.825V60.6603H439.825V73.6603ZM455.825 73.6603H468.825V60.6603H455.825V73.6603ZM471.825 57.6603H484.825V44.6603H471.825V57.6603ZM455.825 57.6603H468.825V44.6603H455.825V57.6603ZM471.825 41.6603H484.825V28.6603H471.825V41.6603Z" fill="#FF0000"/>
<path d="M473.825 8.66025L455.075 17.3205V0L473.825 8.66025Z" fill="#0095FF"/>
<path d="M455.075 17.3205V0L473.825 8.66025L455.075 17.3205ZM457.075 3.12705V14.1935L469.056 8.66025L457.075 3.12705Z" fill="#0095FF"/>
</svg>
