<svg width="425" height="126" viewBox="0 0 425 126" fill="none" xmlns="http://www.w3.org/2000/svg">
<path d="M329.468 79.4923C326.993 79.4923 324.615 79.1083 322.332 78.3403C320.071 77.5509 318.087 76.4309 316.38 74.9803C314.673 73.5083 313.447 71.7483 312.7 69.7003L320.028 67.0123C320.327 67.8656 320.935 68.6443 321.852 69.3483C322.769 70.0523 323.889 70.6176 325.212 71.0443C326.535 71.4709 327.953 71.6842 329.468 71.6842C331.025 71.6842 332.476 71.4496 333.82 70.9803C335.185 70.4896 336.284 69.8176 337.116 68.9643C337.948 68.0896 338.364 67.0763 338.364 65.9243C338.364 64.7509 337.927 63.7909 337.052 63.0443C336.177 62.2763 335.057 61.6683 333.692 61.2203C332.327 60.7723 330.919 60.4309 329.468 60.1963C326.289 59.7056 323.441 58.9483 320.924 57.9243C318.407 56.9003 316.412 55.4816 314.94 53.6683C313.489 51.8549 312.764 49.5083 312.764 46.6283C312.764 43.9189 313.543 41.5509 315.1 39.5243C316.657 37.4976 318.705 35.9189 321.244 34.7883C323.783 33.6576 326.524 33.0923 329.468 33.0923C331.921 33.0923 334.289 33.4763 336.572 34.2443C338.855 35.0123 340.849 36.1323 342.556 37.6043C344.284 39.0763 345.521 40.8469 346.268 42.9163L338.908 45.5723C338.609 44.7189 338.001 43.9403 337.084 43.2363C336.167 42.5323 335.047 41.9776 333.724 41.5723C332.401 41.1456 330.983 40.9323 329.468 40.9323C327.953 40.9109 326.513 41.1563 325.148 41.6683C323.804 42.1589 322.705 42.8309 321.852 43.6843C320.999 44.5376 320.572 45.5189 320.572 46.6283C320.572 48.0576 320.967 49.1349 321.756 49.8603C322.567 50.5856 323.644 51.1189 324.988 51.4603C326.332 51.7803 327.825 52.0789 329.468 52.3563C332.455 52.8256 335.217 53.6149 337.756 54.7243C340.295 55.8336 342.332 57.3163 343.868 59.1723C345.404 61.0069 346.172 63.2576 346.172 65.9243C346.172 68.6336 345.404 71.0123 343.868 73.0603C342.332 75.0869 340.295 76.6656 337.756 77.7963C335.217 78.9269 332.455 79.4923 329.468 79.4923Z" fill="white"/>
<path d="M297.785 33.8603V41.6683H284.089V78.6603H276.281V41.6683H262.585V33.8603H297.785Z" fill="white"/>
<path d="M216.89 78.6603V33.8603H234.074C236.506 33.8603 238.703 34.4683 240.666 35.6843C242.629 36.9003 244.186 38.5323 245.338 40.5803C246.49 42.6069 247.066 44.8576 247.066 47.3323C247.066 49.3589 246.693 51.2256 245.946 52.9323C245.221 54.6176 244.197 56.0789 242.874 57.3163C241.573 58.5536 240.069 59.4923 238.362 60.1323L249.082 78.6603H240.09L229.722 60.8363H224.698V78.6603H216.89ZM224.698 53.0283H233.178C234.287 53.0283 235.301 52.7509 236.218 52.1963C237.135 51.6416 237.871 50.8949 238.426 49.9563C238.981 49.0176 239.258 47.9723 239.258 46.8203C239.258 45.6469 238.981 44.5909 238.426 43.6523C237.871 42.7136 237.135 41.9669 236.218 41.4123C235.301 40.8576 234.287 40.5803 233.178 40.5803H224.698V53.0283Z" fill="white"/>
<path d="M176.641 33.8603H185.633L201.921 78.6603H193.633L190.753 70.7243H171.553L168.673 78.6603H160.385L176.641 33.8603ZM174.401 62.9163H187.873L181.121 44.4523L174.401 62.9163Z" fill="white"/>
<path d="M145.678 58.5963V78.6603H139.021V60.2283C139.021 58.7989 138.669 57.4976 137.965 56.3243C137.283 55.1509 136.355 54.2229 135.182 53.5403C134.03 52.8363 132.728 52.4843 131.278 52.4843C129.87 52.4843 128.579 52.8363 127.406 53.5403C126.232 54.2229 125.294 55.1509 124.59 56.3243C123.886 57.4976 123.534 58.7989 123.534 60.2283V78.6603H116.878V46.6603H123.534V50.0523C124.643 48.7296 126.008 47.6843 127.63 46.9163C129.251 46.1483 131 45.7643 132.878 45.7643C135.246 45.7643 137.4 46.3403 139.342 47.4923C141.283 48.6443 142.819 50.1909 143.95 52.1323C145.102 54.0736 145.678 56.2283 145.678 58.5963Z" fill="white"/>
<path d="M93.215 46.6603H99.871V78.6603H93.215V46.6603ZM96.607 42.0203C95.583 42.0203 94.7297 41.6896 94.047 41.0283C93.3643 40.3669 93.023 39.5349 93.023 38.5323C93.023 37.5509 93.3643 36.7296 94.047 36.0683C94.7297 35.3856 95.5723 35.0443 96.575 35.0443C97.5563 35.0443 98.3883 35.3856 99.071 36.0683C99.7537 36.7296 100.095 37.5509 100.095 38.5323C100.095 39.5349 99.7537 40.3669 99.071 41.0283C98.4097 41.6896 97.5883 42.0203 96.607 42.0203Z" fill="white"/>
<path d="M63.1325 79.4923C60.1885 79.4923 57.5005 78.7349 55.0685 77.2203C52.6578 75.7056 50.7272 73.6789 49.2765 71.1403C47.8472 68.5803 47.1325 65.7536 47.1325 62.6603C47.1325 60.3136 47.5485 58.1269 48.3805 56.1003C49.2125 54.0523 50.3538 52.2603 51.8045 50.7243C53.2765 49.1669 54.9832 47.9509 56.9245 47.0763C58.8658 46.2016 60.9352 45.7643 63.1325 45.7643C65.5858 45.7643 67.8365 46.2763 69.8845 47.3003C71.9325 48.3029 73.6818 49.7003 75.1325 51.4923C76.5832 53.2629 77.6498 55.3109 78.3325 57.6363C79.0152 59.9403 79.2178 62.3936 78.9405 64.9963H54.2685C54.5458 66.4683 55.0792 67.8016 55.8685 68.9963C56.6792 70.1696 57.7032 71.0976 58.9405 71.7803C60.1992 72.4629 61.5965 72.8149 63.1325 72.8363C64.7538 72.8363 66.2258 72.4309 67.5485 71.6203C68.8925 70.8096 69.9912 69.6896 70.8445 68.2603L77.5965 69.8283C76.3165 72.6656 74.3858 74.9909 71.8045 76.8043C69.2232 78.5963 66.3325 79.4923 63.1325 79.4923ZM54.0445 59.9083H72.2205C72.0072 58.3723 71.4632 56.9856 70.5885 55.7483C69.7352 54.4896 68.6578 53.4976 67.3565 52.7723C66.0765 52.0256 64.6685 51.6523 63.1325 51.6523C61.6178 51.6523 60.2098 52.0149 58.9085 52.7403C57.6285 53.4656 56.5618 54.4576 55.7085 55.7163C54.8765 56.9536 54.3218 58.3509 54.0445 59.9083Z" fill="white"/>
<path d="M16.608 79.4923C14.1547 79.4923 11.7973 79.1083 9.536 78.3403C7.27467 77.5723 5.30134 76.4736 3.616 75.0443C1.93067 73.5936 0.725333 71.8763 0 69.8923L6.24001 67.5563C6.60267 68.5803 7.29601 69.4976 8.32001 70.3083C9.36534 71.0976 10.6027 71.7163 12.032 72.1643C13.4827 72.6123 15.008 72.8363 16.608 72.8363C18.3147 72.8363 19.9147 72.5589 21.408 72.0043C22.9227 71.4496 24.1387 70.6816 25.056 69.7003C25.9947 68.7189 26.464 67.5669 26.464 66.2443C26.464 64.8789 25.9733 63.7589 24.992 62.8843C24.032 62.0096 22.7947 61.3163 21.28 60.8043C19.7867 60.2923 18.2293 59.9083 16.608 59.6523C13.472 59.1403 10.656 58.3936 8.16 57.4123C5.68534 56.4309 3.72267 55.0549 2.272 53.2843C0.84267 51.5136 0.128006 49.2096 0.128006 46.3723C0.128006 43.7056 0.885335 41.3803 2.4 39.3963C3.936 37.4123 5.95201 35.8763 8.44801 34.7883C10.9653 33.6789 13.6853 33.1243 16.608 33.1243C19.0187 33.1243 21.344 33.5083 23.584 34.2763C25.8453 35.0229 27.8293 36.1216 29.536 37.5723C31.264 39.0016 32.5013 40.7403 33.248 42.7883L26.944 45.0603C26.5813 44.0149 25.888 43.1083 24.864 42.3403C23.84 41.5509 22.6027 40.9323 21.152 40.4843C19.7227 40.0363 18.208 39.8123 16.608 39.8123C14.9013 39.7909 13.3013 40.0683 11.808 40.6443C10.336 41.1989 9.13067 41.9669 8.192 42.9483C7.25333 43.9296 6.784 45.0709 6.784 46.3723C6.784 47.9723 7.22133 49.1883 8.096 50.0203C8.97067 50.8523 10.144 51.4709 11.616 51.8763C13.1093 52.2603 14.7733 52.6123 16.608 52.9323C19.552 53.4016 22.272 54.1803 24.768 55.2683C27.2853 56.3563 29.3013 57.8069 30.816 59.6203C32.352 61.4123 33.12 63.6203 33.12 66.2443C33.12 68.8896 32.352 71.2149 30.816 73.2203C29.3013 75.2043 27.2853 76.7509 24.768 77.8603C22.272 78.9483 19.552 79.4923 16.608 79.4923Z" fill="white"/>
<path d="M348.738 124.66H345.266L338.194 114.948L336.514 116.964V124.66H333.826V102.26H336.514V112.788L345.33 102.26H348.834L339.954 112.836L348.738 124.66Z" fill="white"/>
<path d="M302.526 124.66V102.26H310.398C311.593 102.26 312.67 102.553 313.63 103.14C314.601 103.727 315.369 104.521 315.934 105.524C316.51 106.516 316.798 107.625 316.798 108.852C316.798 109.929 316.585 110.911 316.158 111.796C315.732 112.681 315.145 113.423 314.398 114.02C313.662 114.607 312.825 115.012 311.886 115.236L317.326 124.66H314.222L308.878 115.46H305.214V124.66H302.526ZM305.214 112.772H310.126C310.852 112.772 311.518 112.596 312.126 112.244C312.734 111.881 313.214 111.396 313.566 110.788C313.929 110.169 314.11 109.476 314.11 108.708C314.11 107.929 313.929 107.236 313.566 106.628C313.214 106.009 312.734 105.524 312.126 105.172C311.518 104.809 310.852 104.628 310.126 104.628H305.214V112.772Z" fill="white"/>
<path d="M275.533 125.076C274.018 125.076 272.594 124.777 271.26 124.18C269.927 123.572 268.754 122.735 267.741 121.668C266.727 120.601 265.933 119.369 265.357 117.972C264.781 116.564 264.492 115.06 264.492 113.46C264.492 111.86 264.781 110.361 265.357 108.964C265.933 107.556 266.727 106.319 267.741 105.252C268.754 104.185 269.927 103.353 271.26 102.756C272.594 102.148 274.018 101.844 275.533 101.844C277.058 101.844 278.487 102.148 279.82 102.756C281.154 103.353 282.327 104.185 283.341 105.252C284.354 106.319 285.143 107.556 285.708 108.964C286.284 110.361 286.573 111.86 286.573 113.46C286.573 115.06 286.284 116.564 285.708 117.972C285.143 119.369 284.354 120.601 283.341 121.668C282.327 122.735 281.154 123.572 279.82 124.18C278.487 124.777 277.058 125.076 275.533 125.076ZM275.533 122.388C276.695 122.388 277.778 122.153 278.781 121.684C279.794 121.215 280.679 120.569 281.437 119.748C282.205 118.916 282.802 117.967 283.229 116.9C283.666 115.823 283.885 114.676 283.885 113.46C283.885 112.244 283.666 111.097 283.229 110.02C282.791 108.932 282.189 107.983 281.421 107.172C280.663 106.351 279.778 105.705 278.765 105.236C277.762 104.767 276.685 104.532 275.533 104.532C274.37 104.532 273.282 104.767 272.268 105.236C271.266 105.705 270.38 106.356 269.612 107.188C268.855 108.009 268.258 108.959 267.82 110.036C267.394 111.103 267.181 112.244 267.181 113.46C267.181 114.687 267.399 115.839 267.836 116.916C268.274 117.993 268.871 118.943 269.629 119.764C270.397 120.585 271.282 121.231 272.285 121.7C273.298 122.159 274.381 122.388 275.533 122.388Z" fill="white"/>
<path d="M229.849 124.66L224.121 102.26H226.889L231.401 119.94L235.897 102.26H238.313L242.825 119.94L247.321 102.26H250.089L244.393 124.66H241.257L237.113 108.436L232.969 124.66H229.849Z" fill="white"/>
<path d="M194.845 124.66V102.26H208.589V104.948H197.533V111.316H206.589V114.004H197.533V121.972H208.589V124.66H194.845Z" fill="white"/>
<path d="M153.858 124.66L158.194 102.26H160.258L166.306 118.164L172.338 102.26H174.402L178.754 124.66H176.018L172.866 108.404L167.186 123.444H165.41L159.73 108.404L156.594 124.66H153.858Z" fill="white"/>
<path d="M127.749 102.26H130.997L139.141 124.66H136.293L134.629 120.084H124.117L122.469 124.66H119.605L127.749 102.26ZM125.109 117.396H133.637L129.365 105.7L125.109 117.396Z" fill="white"/>
<path d="M89.695 124.66V102.26H97.567C98.7617 102.26 99.839 102.553 100.799 103.14C101.77 103.727 102.538 104.521 103.103 105.524C103.679 106.516 103.967 107.625 103.967 108.852C103.967 109.929 103.754 110.911 103.327 111.796C102.9 112.681 102.314 113.423 101.567 114.02C100.831 114.607 99.9937 115.012 99.055 115.236L104.495 124.66H101.391L96.047 115.46H92.383V124.66H89.695ZM92.383 112.772H97.295C98.0204 112.772 98.687 112.596 99.295 112.244C99.903 111.881 100.383 111.396 100.735 110.788C101.098 110.169 101.279 109.476 101.279 108.708C101.279 107.929 101.098 107.236 100.735 106.628C100.383 106.009 99.903 105.524 99.295 105.172C98.687 104.809 98.0204 104.628 97.295 104.628H92.383V112.772Z" fill="white"/>
<path d="M61.3325 124.66V102.26H74.4685V104.948H64.0205V111.316H72.9325V114.004H64.0205V124.66H61.3325Z" fill="white"/>
<path d="M424.438 124.66H373.438V57.6603H389.438V41.6603H405.438V25.6603H424.438V124.66ZM376.438 89.6603H389.438V76.6603H376.438V89.6603ZM376.438 73.6603H389.438V60.6603H376.438V73.6603ZM392.438 73.6603H405.438V60.6603H392.438V73.6603ZM408.438 57.6603H421.438V44.6603H408.438V57.6603ZM392.438 57.6603H405.438V44.6603H392.438V57.6603ZM408.438 41.6603H421.438V28.6603H408.438V41.6603Z" fill="#FF0000"/>
<path d="M410.438 8.66025L391.688 17.3205V0L410.438 8.66025Z" fill="#0095FF"/>
<path d="M391.688 17.3205V0L410.438 8.66025L391.688 17.3205ZM393.688 3.12705V14.1935L405.669 8.66025L393.688 3.12705Z" fill="#0095FF"/>
</svg>
