<svg width="164" height="48" viewBox="0 0 164 48" fill="none" xmlns="http://www.w3.org/2000/svg">
<path d="M127.304 30.5064C126.348 30.5064 125.429 30.3591 124.547 30.0643C123.673 29.7614 122.907 29.3316 122.247 28.7749C121.588 28.21 121.114 27.5346 120.825 26.7486L123.657 25.717C123.772 26.0445 124.007 26.3433 124.362 26.6135C124.716 26.8837 125.149 27.1006 125.66 27.2644C126.171 27.4281 126.719 27.51 127.304 27.51C127.906 27.51 128.467 27.4199 128.986 27.2398C129.514 27.0515 129.938 26.7936 130.26 26.4662C130.581 26.1305 130.742 25.7416 130.742 25.2995C130.742 24.8492 130.573 24.4808 130.235 24.1943C129.897 23.8995 129.464 23.6662 128.937 23.4943C128.409 23.3223 127.865 23.1913 127.304 23.1013C126.076 22.913 124.976 22.6224 124.003 22.2294C123.03 21.8364 122.26 21.292 121.691 20.5961C121.13 19.9002 120.85 18.9996 120.85 17.8944C120.85 16.8546 121.151 15.9458 121.753 15.1681C122.354 14.3903 123.146 13.7845 124.127 13.3506C125.108 12.9166 126.167 12.6997 127.304 12.6997C128.252 12.6997 129.167 12.8471 130.049 13.1418C130.931 13.4365 131.702 13.8663 132.361 14.4312C133.029 14.9961 133.507 15.6757 133.796 16.4698L130.952 17.4891C130.837 17.1616 130.602 16.8628 130.247 16.5926C129.893 16.3224 129.46 16.1096 128.949 15.954C128.438 15.7903 127.89 15.7084 127.304 15.7084C126.719 15.7002 126.163 15.7944 125.635 15.9909C125.116 16.1792 124.691 16.4371 124.362 16.7645C124.032 17.092 123.867 17.4686 123.867 17.8944C123.867 18.4429 124.02 18.8563 124.325 19.1347C124.638 19.413 125.054 19.6177 125.573 19.7487C126.093 19.8715 126.67 19.9861 127.304 20.0926C128.458 20.2727 129.526 20.5756 130.507 21.0013C131.488 21.427 132.275 21.996 132.868 22.7083C133.462 23.4124 133.759 24.2761 133.759 25.2995C133.759 26.3393 133.462 27.2521 132.868 28.0381C132.275 28.8158 131.488 29.4217 130.507 29.8556C129.526 30.2895 128.458 30.5064 127.304 30.5064Z" fill="white"/>
<path d="M115.062 12.9944V15.9909H109.77V30.1872H106.753V15.9909H101.461V12.9944H115.062Z" fill="white"/>
<path d="M83.8049 30.1872V12.9944H90.4447C91.3844 12.9944 92.2335 13.2278 92.9918 13.6944C93.7502 14.1611 94.3519 14.7874 94.7971 15.5733C95.2422 16.3511 95.4648 17.2148 95.4648 18.1645C95.4648 18.9423 95.3205 19.6587 95.032 20.3136C94.7517 20.9604 94.3561 21.5212 93.845 21.996C93.3422 22.4709 92.761 22.8311 92.1016 23.0767L96.2437 30.1872H92.7693L88.7631 23.3469H86.8219V30.1872H83.8049ZM86.8219 20.3505H90.0985C90.5272 20.3505 90.9187 20.244 91.2732 20.0312C91.6276 19.8183 91.912 19.5318 92.1263 19.1715C92.3406 18.8113 92.4478 18.4101 92.4478 17.968C92.4478 17.5177 92.3406 17.1125 92.1263 16.7523C91.912 16.392 91.6276 16.1055 91.2732 15.8926C90.9187 15.6798 90.5272 15.5733 90.0985 15.5733H86.8219V20.3505Z" fill="white"/>
<path d="M68.253 12.9944H71.7274L78.021 30.1872H74.8186L73.7058 27.1416H66.287L65.1742 30.1872H61.9718L68.253 12.9944ZM67.3874 24.1451H72.5929L69.984 17.0593L67.3874 24.1451Z" fill="white"/>
<path d="M56.2889 22.4873V30.1872H53.717V23.1136C53.717 22.565 53.581 22.0656 53.309 21.6153C53.0452 21.1651 52.6867 20.8089 52.2333 20.5469C51.7882 20.2768 51.2853 20.1417 50.7248 20.1417C50.1808 20.1417 49.6821 20.2768 49.2287 20.5469C48.7753 20.8089 48.4126 21.1651 48.1406 21.6153C47.8686 22.0656 47.7326 22.565 47.7326 23.1136V30.1872H45.1607V17.9066H47.7326V19.2084C48.1612 18.7008 48.6888 18.2996 49.3152 18.0049C49.9417 17.7101 50.6176 17.5628 51.343 17.5628C52.258 17.5628 53.0906 17.7838 53.8407 18.2259C54.5908 18.668 55.1843 19.2616 55.6212 20.0066C56.0663 20.7516 56.2889 21.5785 56.2889 22.4873Z" fill="white"/>
<path d="M36.0177 17.9066H38.5895V30.1872H36.0177V17.9066ZM37.3283 16.126C36.9327 16.126 36.6029 15.9991 36.3392 15.7453C36.0754 15.4915 35.9435 15.1722 35.9435 14.7874C35.9435 14.4108 36.0754 14.0956 36.3392 13.8418C36.6029 13.5798 36.9285 13.4488 37.316 13.4488C37.6952 13.4488 38.0166 13.5798 38.2804 13.8418C38.5442 14.0956 38.6761 14.4108 38.6761 14.7874C38.6761 15.1722 38.5442 15.4915 38.2804 15.7453C38.0249 15.9991 37.7075 16.126 37.3283 16.126Z" fill="white"/>
<path d="M24.394 30.5064C23.2565 30.5064 22.2178 30.2158 21.2781 29.6345C20.3467 29.0532 19.6007 28.2755 19.0401 27.3012C18.4878 26.3188 18.2117 25.234 18.2117 24.0469C18.2117 23.1463 18.3724 22.3072 18.6939 21.5294C19.0154 20.7434 19.4564 20.0557 20.0169 19.4663C20.5857 18.8686 21.2452 18.4019 21.9953 18.0663C22.7454 17.7306 23.545 17.5628 24.394 17.5628C25.342 17.5628 26.2116 17.7593 27.0029 18.1522C27.7943 18.537 28.4702 19.0733 29.0307 19.761C29.5913 20.4405 30.0034 21.2265 30.2672 22.1188C30.531 23.003 30.6093 23.9446 30.5021 24.9434H20.969C21.0762 25.5083 21.2823 26.02 21.5872 26.4784C21.9005 26.9287 22.2961 27.2849 22.7742 27.5468C23.2606 27.8088 23.8005 27.9439 24.394 27.9521C25.0205 27.9521 25.5892 27.7965 26.1003 27.4854C26.6196 27.1743 27.0442 26.7445 27.3739 26.196L29.9828 26.7977C29.4882 27.8866 28.7422 28.779 27.7448 29.4749C26.7474 30.1626 25.6305 30.5064 24.394 30.5064ZM20.8825 22.9908H27.9056C27.8231 22.4013 27.6129 21.8691 27.275 21.3943C26.9452 20.9113 26.529 20.5306 26.0261 20.2522C25.5315 19.9657 24.9875 19.8224 24.394 19.8224C23.8087 19.8224 23.2647 19.9616 22.7619 20.2399C22.2673 20.5183 21.8551 20.899 21.5254 21.382C21.2039 21.8569 20.9896 22.3931 20.8825 22.9908Z" fill="white"/>
<path d="M6.41723 30.5064C5.46928 30.5064 4.55842 30.3591 3.68465 30.0643C2.81089 29.7696 2.0484 29.348 1.3972 28.7995C0.745999 28.2427 0.280264 27.5837 0 26.8223L2.4111 25.9258C2.55123 26.3188 2.81913 26.6708 3.2148 26.9819C3.61871 27.2849 4.09681 27.5223 4.64909 27.6942C5.20962 27.8661 5.799 27.9521 6.41723 27.9521C7.07667 27.9521 7.6949 27.8457 8.27192 27.6328C8.85718 27.4199 9.32703 27.1252 9.68148 26.7486C10.0442 26.372 10.2255 25.9299 10.2255 25.4223C10.2255 24.8983 10.0359 24.4685 9.65675 24.1329C9.28582 23.7972 8.80772 23.5311 8.22246 23.3346C7.64545 23.1381 7.0437 22.9908 6.41723 22.8925C5.2055 22.696 4.11741 22.4095 3.15297 22.0329C2.19678 21.6563 1.43842 21.1282 0.877888 20.4487C0.325602 19.7692 0.0494607 18.885 0.0494607 17.7961C0.0494607 16.7727 0.342088 15.8803 0.927346 15.119C1.52085 14.3576 2.29982 13.7681 3.26426 13.3506C4.23694 12.9248 5.28793 12.712 6.41723 12.712C7.34869 12.712 8.24719 12.8593 9.11271 13.1541C9.98647 13.4406 10.7531 13.8622 11.4125 14.419C12.0802 14.9675 12.5583 15.6347 12.8468 16.4207L10.411 17.2926C10.2709 16.8914 10.003 16.5435 9.6073 16.2488C9.21163 15.9458 8.73353 15.7084 8.173 15.5365C7.62072 15.3646 7.03546 15.2786 6.41723 15.2786C5.75778 15.2704 5.13955 15.3768 4.56254 15.5979C3.99377 15.8108 3.52803 16.1055 3.16534 16.4821C2.80264 16.8587 2.6213 17.2967 2.6213 17.7961C2.6213 18.4101 2.79028 18.8768 3.12824 19.1961C3.46621 19.5154 3.91958 19.7528 4.48835 19.9084C5.06537 20.0557 5.70832 20.1908 6.41723 20.3136C7.55477 20.4937 8.60576 20.7926 9.5702 21.2101C10.5429 21.6276 11.3219 22.1843 11.9071 22.8802C12.5006 23.568 12.7974 24.4153 12.7974 25.4223C12.7974 26.4375 12.5006 27.3299 11.9071 28.0995C11.3219 28.8609 10.5429 29.4544 9.5702 29.8801C8.60576 30.2977 7.55477 30.5064 6.41723 30.5064Z" fill="white"/>
<path d="M134.75 47.8404H133.409L130.676 44.1132L130.027 44.8869V47.8404H128.988V39.244H130.027V43.2843L133.433 39.244H134.787L131.356 43.3027L134.75 47.8404Z" fill="white"/>
<path d="M116.894 47.8404V39.244H119.936C120.398 39.244 120.814 39.3566 121.185 39.5817C121.56 39.8068 121.857 40.1118 122.075 40.4966C122.298 40.8773 122.409 41.303 122.409 41.7738C122.409 42.1872 122.326 42.5638 122.162 42.9036C121.997 43.2433 121.77 43.5278 121.482 43.7571C121.197 43.9822 120.874 44.1378 120.511 44.2237L122.613 47.8404H121.414L119.349 44.3097H117.933V47.8404H116.894ZM117.933 43.2781H119.831C120.111 43.2781 120.369 43.2106 120.604 43.0755C120.839 42.9363 121.024 42.7501 121.16 42.5167C121.3 42.2793 121.37 42.0132 121.37 41.7185C121.37 41.4197 121.3 41.1536 121.16 40.9203C121.024 40.6829 120.839 40.4966 120.604 40.3615C120.369 40.2223 120.111 40.1527 119.831 40.1527H117.933V43.2781Z" fill="white"/>
<path d="M106.464 48C105.879 48 105.329 47.8854 104.813 47.6561C104.298 47.4228 103.845 47.1015 103.453 46.6921C103.062 46.2828 102.755 45.81 102.532 45.2737C102.31 44.7334 102.198 44.1562 102.198 43.5422C102.198 42.9281 102.31 42.353 102.532 41.8168C102.755 41.2764 103.062 40.8016 103.453 40.3922C103.845 39.9829 104.298 39.6636 104.813 39.4343C105.329 39.201 105.879 39.0843 106.464 39.0843C107.053 39.0843 107.606 39.201 108.121 39.4343C108.636 39.6636 109.089 39.9829 109.481 40.3922C109.873 40.8016 110.178 41.2764 110.396 41.8168C110.619 42.353 110.73 42.9281 110.73 43.5422C110.73 44.1562 110.619 44.7334 110.396 45.2737C110.178 45.81 109.873 46.2828 109.481 46.6921C109.089 47.1015 108.636 47.4228 108.121 47.6561C107.606 47.8854 107.053 48 106.464 48ZM106.464 46.9684C106.913 46.9684 107.332 46.8784 107.719 46.6983C108.111 46.5182 108.453 46.2705 108.745 45.9553C109.042 45.636 109.273 45.2717 109.438 44.8623C109.607 44.4489 109.691 44.0088 109.691 43.5422C109.691 43.0755 109.607 42.6355 109.438 42.222C109.269 41.8045 109.036 41.4402 108.739 41.1291C108.446 40.8139 108.104 40.5662 107.713 40.3861C107.325 40.206 106.909 40.1159 106.464 40.1159C106.015 40.1159 105.594 40.206 105.203 40.3861C104.815 40.5662 104.473 40.8159 104.177 41.1352C103.884 41.4504 103.653 41.8147 103.484 42.2282C103.319 42.6375 103.237 43.0755 103.237 43.5422C103.237 44.0129 103.321 44.455 103.49 44.8685C103.659 45.2819 103.89 45.6462 104.183 45.9614C104.48 46.2766 104.822 46.5243 105.209 46.7044C105.601 46.8804 106.019 46.9684 106.464 46.9684Z" fill="white"/>
<path d="M88.8122 47.8404L86.599 39.244H87.6685L89.4119 46.029L91.1491 39.244H92.0827L93.8261 46.029L95.5633 39.244H96.6328L94.4319 47.8404H93.2202L91.619 41.6141L90.0178 47.8404H88.8122Z" fill="white"/>
<path d="M75.2869 47.8404V39.244H80.5975V40.2756H76.3255V42.7194H79.8247V43.7509H76.3255V46.8088H80.5975V47.8404H75.2869Z" fill="white"/>
<path d="M59.4496 47.8404L61.125 39.244H61.9225L64.2594 45.3474L66.5901 39.244H67.3876L69.0692 47.8404H68.0121L66.7942 41.6018L64.5994 47.3737H63.9132L61.7185 41.6018L60.5068 47.8404H59.4496Z" fill="white"/>
<path d="M49.3614 39.244H50.6164L53.7632 47.8404H52.6628L52.0198 46.0842H47.958L47.3213 47.8404H46.2146L49.3614 39.244ZM48.3413 45.0527H51.6365L49.9858 40.5641L48.3413 45.0527Z" fill="white"/>
<path d="M34.6576 47.8404V39.244H37.6993C38.1609 39.244 38.5772 39.3566 38.9481 39.5817C39.3232 39.8068 39.6199 40.1118 39.8384 40.4966C40.0609 40.8773 40.1722 41.303 40.1722 41.7738C40.1722 42.1872 40.0898 42.5638 39.9249 42.9036C39.7601 43.2433 39.5334 43.5278 39.2449 43.7571C38.9605 43.9822 38.6369 44.1378 38.2742 44.2237L40.3762 47.8404H39.1769L37.112 44.3097H35.6962V47.8404H34.6576ZM35.6962 43.2781H37.5942C37.8744 43.2781 38.132 43.2106 38.367 43.0755C38.6019 42.9363 38.7874 42.7501 38.9234 42.5167C39.0635 42.2793 39.1336 42.0132 39.1336 41.7185C39.1336 41.4197 39.0635 41.1536 38.9234 40.9203C38.7874 40.6829 38.6019 40.4966 38.367 40.3615C38.132 40.2223 37.8744 40.1527 37.5942 40.1527H35.6962V43.2781Z" fill="white"/>
<path d="M23.6985 47.8404V39.244H28.7742V40.2756H24.7371V42.7194H28.1807V43.7509H24.7371V47.8404H23.6985Z" fill="white"/>
<path d="M144.294 34.4086H150.476V47.8404H144.294V34.4086Z" fill="#FF0000"/>
<path d="M150.476 34.4086V47.8404H144.294V34.4086H150.476ZM144.68 47.4566H150.09V34.7923H144.68V47.4566Z" fill="#FF0000"/>
<path d="M156.659 23.2794H164V47.8404H156.659V23.2794Z" fill="#FF0000"/>
<path d="M164 23.2794V47.8404H156.659V23.2794H164ZM157.045 47.4566H163.614V23.6631H157.045V47.4566Z" fill="#FF0000"/>
<path d="M150.476 29.4196H156.659V47.8404H150.476V29.4196Z" fill="#FF0000"/>
<path d="M156.659 29.4196V47.8404H150.476V29.4196H156.659ZM150.863 47.4566H156.272V29.8034H150.863V47.4566Z" fill="#FF0000"/>
<path d="M144.294 23.2794H145.453V41.7001H144.294V23.2794Z" fill="#FF0000"/>
<path d="M162.841 22.1281L162.841 23.2794L144.294 23.2794V22.1281L162.841 22.1281Z" fill="#FF0000"/>
<path d="M162.841 28.2683L162.841 29.4196H144.294L144.294 28.2683H162.841Z" fill="#FF0000"/>
<path d="M162.841 15.9878V17.1391H150.476V15.9878H162.841Z" fill="#FF0000"/>
<path d="M150.476 17.1391H151.635V41.7001H150.476V17.1391Z" fill="#FF0000"/>
<path d="M164 9.84754L164 10.9988L156.659 10.9988L156.659 9.84754H164Z" fill="#FF0000"/>
<path d="M162.841 10.9988L164 10.9988L164 35.5599H162.841V10.9988Z" fill="#FF0000"/>
<path d="M156.659 10.9988L157.818 10.9988V35.5599H156.659L156.659 10.9988Z" fill="#FF0000"/>
<path d="M158.59 3.32351L151.346 6.64703V0L158.59 3.32351Z" fill="#0095FF"/>
<path d="M151.346 6.64703V0L158.59 3.32351L151.346 6.64703ZM152.118 1.20006V5.44697L156.748 3.32351L152.118 1.20006Z" fill="#0095FF"/>
</svg>
