<svg width="20" height="48" viewBox="0 0 20 48" fill="none" xmlns="http://www.w3.org/2000/svg">
<path d="M0 34.4086H6.18231V47.8404H0V34.4086Z" fill="#FF0000"/>
<path d="M6.18231 34.4086V47.8404H0V34.4086H6.18231ZM0.386398 47.4566H5.79591V34.7923H0.386398V47.4566Z" fill="#FF0000"/>
<path d="M12.3646 23.2794H19.7061V47.8404H12.3646V23.2794Z" fill="#FF0000"/>
<path d="M19.7061 23.2794V47.8404H12.3646V23.2794H19.7061ZM12.751 47.4566H19.3197V23.6631H12.751V47.4566Z" fill="#FF0000"/>
<path d="M6.18231 29.4196H12.3646V47.8404H6.18231V29.4196Z" fill="#FF0000"/>
<path d="M12.3646 29.4196V47.8404H6.18231V29.4196H12.3646ZM6.5687 47.4566H11.9782V29.8034H6.5687V47.4566Z" fill="#FF0000"/>
<path d="M0 23.2794H1.15919V41.7001H0V23.2794Z" fill="#FF0000"/>
<path d="M18.5469 22.1281L18.5469 23.2794L0 23.2794V22.1281L18.5469 22.1281Z" fill="#FF0000"/>
<path d="M18.5469 28.2683L18.5469 29.4196H1.52588e-05L0 28.2683H18.5469Z" fill="#FF0000"/>
<path d="M18.5469 15.9878V17.1391H6.18231V15.9878H18.5469Z" fill="#FF0000"/>
<path d="M6.18231 17.1391H7.34149V41.7001H6.18231V17.1391Z" fill="#FF0000"/>
<path d="M19.7061 9.84754L19.7061 10.9988L12.3646 10.9988L12.3646 9.84754H19.7061Z" fill="#FF0000"/>
<path d="M18.5469 10.9988L19.7061 10.9988L19.7061 35.5599H18.5469V10.9988Z" fill="#FF0000"/>
<path d="M12.3646 10.9988L13.5238 10.9988V35.5599H12.3646L12.3646 10.9988Z" fill="#FF0000"/>
<path d="M14.2966 3.32351L7.0517 6.64703V0L14.2966 3.32351Z" fill="#0095FF"/>
<path d="M7.0517 6.64703V0L14.2966 3.32351L7.0517 6.64703ZM7.82448 1.20006V5.44697L12.454 3.32351L7.82448 1.20006Z" fill="#0095FF"/>
</svg>
