<svg width="105" height="256" viewBox="0 0 105 256" fill="none" xmlns="http://www.w3.org/2000/svg">
<path d="M105 256H0V118.41H32.9412V85.5527H65.8824V52.6954H105V256ZM6.17647 184.125H32.9412V157.428H6.17647V184.125ZM6.17647 151.267H32.9412V124.571H6.17647V151.267ZM39.1176 151.267H65.8824V124.571H39.1176V151.267ZM72.0588 118.41H98.8235V91.7135H72.0588V118.41ZM39.1176 118.41H65.8824V91.7135H39.1176V118.41ZM72.0588 85.5527H98.8235V58.8562H72.0588V85.5527Z" fill="#FF0000"/>
<path d="M76.1765 17.7845L37.5735 35.5691V0L76.1765 17.7845Z" fill="#0095FF"/>
<path d="M37.5735 35.5691V0L76.1765 17.7845L37.5735 35.5691ZM41.6912 6.42166V29.1474L66.3589 17.7845L41.6912 6.42166Z" fill="#0095FF"/>
</svg>
