<svg width="51" height="125" viewBox="0 0 51 125" fill="none" xmlns="http://www.w3.org/2000/svg">
<path d="M51 124.66H0V57.6603H16V41.6603H32V25.6603H51V124.66ZM3 89.6603H16V76.6603H3V89.6603ZM3 73.6603H16V60.6603H3V73.6603ZM19 73.6603H32V60.6603H19V73.6603ZM35 57.6603H48V44.6603H35V57.6603ZM19 57.6603H32V44.6603H19V57.6603ZM35 41.6603H48V28.6603H35V41.6603Z" fill="#FF0000"/>
<path d="M37 8.66025L18.25 17.3205V0L37 8.66025Z" fill="#0095FF"/>
<path d="M18.25 17.3205V0L37 8.66025L18.25 17.3205ZM20.25 3.12705V14.1935L32.2314 8.66025L20.25 3.12705Z" fill="#0095FF"/>
</svg>
